<svg
  width="30"
  height="30"
  viewBox="0 0 50 50"
  fill="none"
  xmlns="http://www.w3.org/2000/svg"
>
<g clip-path="url(#clip0_97_12)">
<path
      d="M39.4782 23.9156C39.4782 21.2656 38.5251 19.4312 37.7095 18.0031L37.4595 17.5969C36.4689 16.0031 35.6032 14.6031 35.6032 12.9719C35.6032 11.0031 37.097 9.16562 39.2032 9.16562C39.2657 9.16562 39.3251 9.17187 39.3845 9.17499L39.4814 9.18437C35.5319 5.55668 30.3628 3.5466 25.0001 3.55312C21.446 3.55129 17.9472 4.43381 14.8191 6.12115C11.691 7.80849 9.03188 10.2476 7.08137 13.2187C7.58137 13.2344 8.05949 13.2469 8.46262 13.2469C10.7032 13.2469 14.1751 12.975 14.1751 12.975C15.3314 12.9062 15.4689 14.6031 14.3126 14.7406C14.3126 14.7406 13.1532 14.8781 11.8595 14.9437L19.672 38.175L24.3595 24.0937L21.0157 14.9406C19.8626 14.8719 18.7689 14.7375 18.7689 14.7375C17.6126 14.6687 17.7501 12.9 18.9032 12.9687C18.9032 12.9687 22.447 13.2406 24.5532 13.2406C26.797 13.2406 30.272 12.9687 30.272 12.9687C31.4282 12.9 31.5626 14.6 30.4064 14.7375C30.4064 14.7375 29.2439 14.8719 27.9532 14.9406L35.7032 37.9937L37.8407 30.8469L38.0095 30.3062C38.8532 27.6187 39.4751 25.6344 39.4751 23.9125L39.4782 23.9156ZM3.55324 25C3.55303 29.0273 4.68661 32.9734 6.82427 36.3865C8.96193 39.7997 12.0173 42.5421 15.6407 44.3L5.40637 16.2687C4.18084 19.0162 3.54935 21.9916 3.55324 25V25Z"
      fill="#699BF7"
    />
<path
      d="M18.9407 45.5719L25.3782 26.875L31.9688 44.9375C32.0125 45.0406 32.0626 45.1375 32.1219 45.2312C27.8733 46.728 23.2609 46.8472 18.9407 45.5719V45.5719ZM43.8157 14.7094C43.9094 15.3937 43.9625 16.125 43.9625 16.9156C43.9625 19.0906 43.5563 21.5375 42.3313 24.5969L35.7813 43.5344C40.6148 40.7261 44.1601 36.1409 45.6616 30.7563C47.163 25.3716 46.5018 19.6135 43.8188 14.7094H43.8157Z"
      fill="#699BF7"
    />
<path
      fill-rule="evenodd"
      clip-rule="evenodd"
      d="M0 25C0 11.2156 11.2156 0 25 0C38.7812 0 50 11.2156 50 25C50 38.7844 38.7812 50 25 50C11.2156 50 0 38.7844 0 25ZM1.14688 25C1.14688 38.1531 11.8469 48.8531 25 48.8531C38.15 48.8531 48.85 38.1531 48.85 25C48.85 11.8437 38.15 1.14688 25 1.14688C11.8437 1.14688 1.14688 11.8437 1.14688 25Z"
      fill="#699BF7"
    />
</g>
<defs>
<clipPath id="clip0_97_12">
<rect width="50" height="50" fill="white" />
</clipPath>
</defs>
</svg>
