<?xml version="1.0" encoding="utf-8"?>
<!-- Generator: Adobe Illustrator 25.2.0, SVG Export Plug-In . SVG Version: 6.00 Build 0)  -->
<svg version="1.1" id="Calque_1" xmlns="http://www.w3.org/2000/svg" xmlns:xlink="http://www.w3.org/1999/xlink" x="0px" y="0px"
	 viewBox="0 0 30 30" style="enable-background:new 0 0 30 30;" xml:space="preserve">
<style type="text/css">
	.st0{fill:none;stroke:#000000;stroke-width:2;stroke-miterlimit:8;}
	.st1{fill:#FFFFFF;stroke:#000000;stroke-miterlimit:8;}
</style>
<path class="st0" d="M15,2v17 M15,19v4c0,2.2-1.8,4-4,4s-4-1.8-4-4s1.8-4,4-4 M15,19h-4 M11,19c-2.2,0-4-1.8-4-4s1.8-4,4-4 M11,11h4
	 M11,11h8 M11,11c-2.2,0-4-1.8-4-4s1.8-4,4-4h8c2.2,0,4,1.8,4,4s-1.8,4-4,4 M19,11c2.2,0,4,1.8,4,4s-1.8,4-4,4s-4-1.8-4-4
	S16.8,11,19,11z"/>
<rect x="7.6" y="3.9" class="st1" width="7.4" height="6"/>
</svg>
