<svg width="50" height="50" viewBox="0 0 50 50" fill="none" xmlns="http://www.w3.org/2000/svg">
<g clip-path="url(#clip0_97_17)">
<path d="M49.0564 22.7719L27.2251 0.943801C26.9262 0.644744 26.5713 0.40751 26.1807 0.245653C25.79 0.0837965 25.3714 0.000488281 24.9485 0.000488281C24.5257 0.000488281 24.107 0.0837965 23.7164 0.245653C23.3258 0.40751 22.9709 0.644744 22.672 0.943801L18.1407 5.47505L23.8907 11.2251C24.5689 10.9935 25.2984 10.9573 25.9962 11.1205C26.6939 11.2837 27.3317 11.6398 27.8368 12.1482C28.3418 12.6565 28.6938 13.2965 28.8525 13.9953C29.0113 14.6941 28.9704 15.4234 28.7345 16.1001L34.2751 21.6438C35.0948 21.3552 35.9884 21.3543 36.8087 21.6413C37.629 21.9283 38.3271 22.4861 38.788 23.2229C39.249 23.9596 39.4453 24.8313 39.3447 25.6945C39.2441 26.5578 38.8525 27.361 38.2345 27.9719C37.6088 28.6014 36.784 28.9942 35.9009 29.0831C35.0178 29.172 34.1312 28.9516 33.3926 28.4594C32.654 27.9673 32.1092 27.2339 31.8512 26.3847C31.5933 25.5355 31.6382 24.623 31.9782 23.8032L26.8126 18.6344V32.2376C27.5978 32.6262 28.226 33.2722 28.5926 34.068C28.9593 34.8637 29.0421 35.761 28.8273 36.6104C28.6125 37.4598 28.1131 38.2099 27.4124 38.7357C26.7116 39.2615 25.8518 39.5312 24.9762 39.5C24.1007 39.4687 23.2623 39.1383 22.6008 38.5638C21.9393 37.9894 21.4947 37.2055 21.3411 36.343C21.1874 35.4805 21.3341 34.5913 21.7565 33.8238C22.179 33.0563 22.8517 32.4567 23.6626 32.125V18.3969C23.1948 18.2052 22.7695 17.9228 22.4113 17.566C22.0531 17.2091 21.7691 16.7849 21.5756 16.3178C21.3821 15.8507 21.283 15.3499 21.284 14.8443C21.285 14.3387 21.3861 13.8383 21.5813 13.3719L15.9157 7.70318L0.946975 22.6719C0.647918 22.9708 0.410684 23.3257 0.248827 23.7164C0.0869703 24.107 0.00366211 24.5257 0.00366211 24.9485C0.00366211 25.3713 0.0869703 25.79 0.248827 26.1806C0.410684 26.5712 0.647918 26.9261 0.946975 27.225L22.7782 49.0563C23.0771 49.3554 23.432 49.5926 23.8227 49.7544C24.2133 49.9163 24.632 49.9996 25.0548 49.9996C25.4776 49.9996 25.8963 49.9163 26.2869 49.7544C26.6775 49.5926 27.0324 49.3554 27.3314 49.0563L49.0595 27.3282C49.6627 26.7241 50.0015 25.9053 50.0015 25.0516C50.0015 24.1979 49.6627 23.3791 49.0595 22.7751" fill="#F24E1E"/>
</g>
<defs>
<clipPath id="clip0_97_17">
<rect width="50" height="50" fill="white"/>
</clipPath>
</defs>
</svg>
