<svg width="50" height="50" viewBox="0 0 73 73" fill="none" xmlns="http://www.w3.org/2000/svg">
<path d="M0 0H73V73H0V0ZM67.0201 55.5895C66.4878 52.2589 64.3191 49.4605 57.886 46.8508C55.6473 45.8014 53.1592 45.0714 52.4201 43.3833C52.1433 42.3795 52.1007 41.832 52.2802 41.2389C52.7364 39.274 55.0633 38.6839 56.8883 39.2314C58.0745 39.5964 59.1695 40.5089 59.857 41.9689C63.002 39.9128 63.002 39.9128 65.1951 38.547C64.3738 37.2695 63.9663 36.719 63.4127 36.1745C61.4964 34.0302 58.9445 32.9352 54.7926 33.0295L52.6482 33.3002C50.592 33.802 48.6332 34.897 47.447 36.357C43.9795 40.2838 44.9802 47.1276 49.1777 49.9563C53.3295 53.0588 59.4007 53.7402 60.1763 56.6632C60.9063 60.222 57.5301 61.3626 54.1964 60.952C51.7296 60.4045 50.3639 59.1695 48.8583 56.8883L43.292 60.0851C43.9308 61.5451 44.6608 62.1808 45.7558 63.4583C51.0483 68.7995 64.2795 68.5257 66.6551 60.4045C66.7433 60.1307 67.3851 58.2601 66.8802 55.3857L67.0201 55.5895ZM39.6968 33.5526H32.8591C32.8591 39.4474 32.8317 45.3056 32.8317 51.2095C32.8317 54.9568 33.0234 58.397 32.412 59.4555C31.4083 61.5512 28.8228 61.2835 27.6488 60.9155C26.4443 60.3193 25.8329 59.498 25.1242 58.3148C24.9325 57.9955 24.7896 57.7187 24.7379 57.7187L19.1868 61.1405C20.1145 63.0568 21.4681 64.7054 23.214 65.7548C25.8146 67.306 29.3095 67.8079 32.9686 66.9866C35.3503 66.2992 37.4034 64.8848 38.4771 62.6948C40.0283 59.8661 39.6998 56.3986 39.6846 52.5174C39.7211 46.2698 39.6846 40.0192 39.6846 33.723L39.6968 33.5526Z" fill="#FFF500"/>
</svg>
