<svg width="67" height="50" viewBox="0 0 67 50" fill="none" xmlns="http://www.w3.org/2000/svg">
<g clip-path="url(#clip0_97_10)">
<path d="M57.3666 28.7797C55.0473 28.7917 53.0314 29.3503 51.3437 30.1761C50.7241 28.9495 50.1049 27.8568 49.9957 27.0552C49.8741 26.1203 49.7286 25.5495 49.8741 24.4323C50.02 23.3151 50.6757 21.7243 50.6635 21.6029C50.6515 21.4815 50.5176 20.9107 49.1819 20.8987C47.8463 20.8865 46.6926 21.1537 46.559 21.5058C46.4254 21.8578 46.1705 22.6594 46.0004 23.4849C45.7697 24.6995 43.3291 29.0344 41.9327 31.3052C41.4832 30.419 41.0947 29.6417 41.0095 29.0224C40.8882 28.0875 40.7424 27.5167 40.8882 26.3995C41.034 25.2823 41.6898 23.6917 41.6775 23.5701C41.6653 23.4487 41.5317 22.8779 40.196 22.8659C38.8601 22.8537 37.7064 23.1209 37.5731 23.4729C37.4395 23.8253 37.2937 24.6508 37.0145 25.4524C36.7351 26.2539 33.4929 33.4914 32.6429 35.3612C32.2994 36.118 31.939 36.8671 31.5622 37.6078C31.5622 37.6078 31.5499 37.6443 31.5135 37.705C31.395 37.9372 31.2737 38.168 31.1494 38.3972V38.4091C30.9671 38.7373 30.7728 39.0407 30.6757 39.0407C30.6028 39.0407 30.4692 38.1664 30.6999 36.9763C31.1856 34.4628 32.3392 30.5526 32.3273 30.419C32.3273 30.3461 32.5457 29.6662 31.5744 29.3138C30.627 28.9618 30.2872 29.5446 30.202 29.5446C30.1171 29.5446 30.0562 29.7511 30.0562 29.7511C30.0562 29.7511 31.1129 25.3552 28.0405 25.3552C26.122 25.3552 23.4747 27.456 22.1632 29.3503C20.6723 30.1616 19.1828 30.9752 17.6944 31.7912C16.9783 32.192 16.2374 32.5927 15.5452 32.969C15.4965 32.9206 15.4481 32.8597 15.3994 32.8112C11.6835 28.8404 4.81059 26.0352 5.102 20.7045C5.21137 18.7615 5.87908 13.6612 18.3017 7.46826C28.5262 2.42868 36.6624 3.82503 38.071 6.92165C40.0866 11.342 33.7116 19.5508 23.1468 20.7407C19.1153 21.1901 17.0023 19.6357 16.4681 19.0529C15.9095 18.4456 15.8244 18.4091 15.6179 18.5308C15.278 18.7131 15.4965 19.2594 15.6179 19.575C15.9338 20.4006 17.233 21.8578 19.4309 22.5745C21.3739 23.2058 26.0976 23.5581 31.8171 21.3479C38.2166 18.8706 43.2197 11.9854 41.7504 6.21748C40.2809 0.364354 30.5663 -1.56637 21.3739 1.70003C15.9095 3.64326 9.98351 6.70316 5.72127 10.6862C0.657465 15.4219 -0.144097 19.5386 0.183767 21.2631C1.36189 27.3831 9.80148 31.3662 13.1773 34.317C13.0072 34.4141 12.8491 34.4992 12.7158 34.5722C11.0278 35.4099 4.59184 38.7735 2.98898 42.3315C1.16762 46.363 3.28064 49.2534 4.677 49.6417C9.01215 50.844 13.4687 48.6826 15.8609 45.1123C18.253 41.5422 17.9616 36.9034 16.8567 34.7784C16.8444 34.7542 16.8325 34.7297 16.808 34.7055C17.2452 34.4505 17.6944 34.1834 18.1317 33.9284C18.9353 33.4534 19.7491 32.9958 20.5726 32.556C20.1595 33.6854 19.8559 35.0334 19.7103 36.9763C19.528 39.2594 20.4629 42.2222 21.6895 43.3878C22.2361 43.8982 22.8796 43.9102 23.2926 43.9102C24.7254 43.9102 25.3692 42.7201 26.0856 41.3115C26.9598 39.5873 27.7491 37.5836 27.7491 37.5836C27.7491 37.5836 26.7655 42.9995 29.4372 42.9995C30.4085 42.9995 31.3921 41.7365 31.8293 41.093V41.105C31.8293 41.105 31.8536 41.0685 31.9023 40.9836C31.9994 40.8258 32.0601 40.7284 32.0601 40.7284V40.7045C32.4486 40.0242 33.3231 38.4821 34.6223 35.9198C36.2981 32.617 37.9132 28.4883 37.9132 28.4883C37.9132 28.4883 38.059 29.4961 38.5567 31.1719C38.8483 32.1555 39.4551 33.2362 39.9411 34.2805C39.5525 34.8271 39.3095 35.1305 39.3095 35.1305L39.3218 35.1427C39.0059 35.5555 38.6661 36.0047 38.2895 36.4422C36.9658 38.0206 35.3874 39.8302 35.1687 40.3521C34.9135 40.9714 34.9744 41.4209 35.4603 41.7852C35.8124 42.0524 36.4437 42.0886 37.0874 42.0524C38.2775 41.9672 39.1153 41.6758 39.528 41.4938C40.1718 41.263 40.9247 40.9107 41.6288 40.3886C42.9283 39.4292 43.7174 38.0571 43.6447 36.2479C43.6082 35.2521 43.2804 34.2563 42.8796 33.3211C43.0012 33.1513 43.1103 32.9813 43.2319 32.8112C45.284 29.8118 46.8749 26.5209 46.8749 26.5209C46.8749 26.5209 47.0207 27.5287 47.5184 29.2047C47.7614 30.0547 48.2593 30.9776 48.6963 31.8761C46.7655 33.4427 45.5754 35.2641 45.1504 36.4542C44.3856 38.6644 44.9804 39.6599 46.1098 39.8907C46.6197 40 47.3484 39.7571 47.8827 39.5263C48.5627 39.3078 49.3642 38.9315 50.1293 38.3727C51.4288 37.4136 52.6793 36.0776 52.6064 34.2685C52.57 33.4427 52.3515 32.6289 52.0478 31.8396C53.6871 31.1599 55.8002 30.7834 58.4957 31.099C64.2762 31.7789 65.4176 35.3854 65.1989 36.9037C64.9804 38.4214 63.7661 39.2472 63.3655 39.5021C62.9645 39.7573 62.8312 39.8422 62.8676 40.0242C62.9161 40.2914 63.1103 40.2795 63.4504 40.2308C63.9241 40.1459 66.4864 39.0042 66.5955 36.2112C66.7778 32.6412 63.3775 28.7433 57.3666 28.7797V28.7797ZM12.7765 43.8131C10.8577 45.9016 8.18637 46.6909 7.03273 46.0232C5.79418 45.3065 6.27986 42.2222 8.63559 40.0123C10.0684 38.6644 11.9142 37.4133 13.1408 36.6485C13.42 36.4784 13.833 36.2357 14.3309 35.9321C14.4158 35.8834 14.4645 35.8591 14.4645 35.8591L14.7559 35.6769C15.6179 38.8341 14.7924 41.6151 12.7765 43.8131V43.8131ZM26.7413 34.317C26.0734 35.9443 24.677 40.1094 23.827 39.8787C23.0983 39.6844 22.6489 36.5271 23.6812 33.4063C24.2033 31.8396 25.3082 29.9696 25.952 29.2412C26.9963 28.0753 28.1499 27.6865 28.4291 28.1604C28.7814 28.7797 27.1541 33.2969 26.7413 34.317V34.317ZM38.2653 39.83C37.9859 39.9758 37.7189 40.0729 37.5973 40C37.5124 39.9513 37.7189 39.7571 37.7189 39.7571C37.7189 39.7571 39.164 38.2029 39.7345 37.4985C40.0627 37.0857 40.451 36.6 40.864 36.0534V36.2112C40.864 38.0693 39.0666 39.3201 38.265 39.83H38.2653ZM47.1541 37.8021C46.9476 37.6563 46.984 37.1706 47.6762 35.6526C47.9434 35.0576 48.5747 34.062 49.6556 33.1026C49.777 33.4912 49.8622 33.8677 49.8499 34.2198C49.8377 36.5636 48.1622 37.4378 47.1541 37.8021Z" fill="#CD6799"/>
</g>
<defs>
<clipPath id="clip0_97_10">
<rect width="66.67" height="50" fill="white"/>
</clipPath>
</defs>
</svg>
