<svg
  width="50"
  height="50"
  viewBox="0 0 80 80"
  fill="none"
  xmlns="http://www.w3.org/2000/svg"
>
<path
    d="M15.7117 0C11.5447 0 7.54835 1.78256 4.60184 4.95552C1.65533 8.12849 0 12.432 0 16.9192V53.8339C0 58.3211 1.65533 62.6246 4.60184 65.7975C7.54835 68.9705 11.5447 70.7531 15.7117 70.7531H29.5494L30.5606 66.391C30.9549 64.6991 31.5205 63.0687 32.2461 61.5244H15.7117C11.7695 61.5244 8.57 58.079 8.57 53.8339V18.4573H57.1334V33.094L60.7328 29.2118C62.2011 27.6368 63.8922 26.4616 65.7034 25.6987V16.9192C65.7034 12.432 64.048 8.12849 61.1015 4.95552C58.155 1.78256 54.1587 0 49.9917 0H15.7117ZM51.3515 39.3141C51.2324 38.7479 50.967 38.2296 50.5859 37.8191L39.1592 25.5142C38.6228 24.9374 37.8956 24.6136 37.1375 24.6142C36.3795 24.6148 35.6527 24.9396 35.117 25.5173C34.5814 26.0949 34.2807 26.878 34.2813 27.6943C34.2818 28.5106 34.5835 29.2933 35.1199 29.8701L44.524 39.9909L35.1199 50.1178C34.7574 50.5066 34.4986 50.9932 34.3704 51.5266C34.2422 52.06 34.2495 52.6207 34.3914 53.1501C34.5332 53.6795 34.8045 54.1581 35.1769 54.536C35.5493 54.9138 36.0091 55.177 36.5082 55.2981L51.3515 39.3141ZM27.7268 29.8763C28.2632 29.2994 28.5649 28.5168 28.5654 27.7005C28.5659 26.8841 28.2653 26.101 27.7297 25.5234C27.194 24.9458 26.4672 24.6209 25.7092 24.6204C24.9511 24.6198 24.2239 24.9435 23.6875 25.5203L12.2608 37.8252C11.9948 38.111 11.7837 38.4504 11.6397 38.8242C11.4957 39.1979 11.4216 39.5985 11.4216 40.0032C11.4216 40.4078 11.4957 40.8085 11.6397 41.1822C11.7837 41.5559 11.9948 41.8954 12.2608 42.1811L23.6875 54.486C24.2239 55.0628 24.9511 55.3866 25.7092 55.386C26.4672 55.3854 27.194 55.0606 27.7297 54.4829C28.2653 53.9053 28.5659 53.1222 28.5654 52.3059C28.5649 51.4896 28.2632 50.7069 27.7268 50.1301L18.3227 39.997L27.7268 29.8701V29.8763ZM77.3871 33.5677C76.5594 32.6757 75.5766 31.9681 74.4948 31.4853C73.413 31.0025 72.2535 30.754 71.0825 30.754C69.9115 30.754 68.7519 31.0025 67.6701 31.4853C66.5884 31.9681 65.6055 32.6757 64.7778 33.5677L40.2733 59.9494C38.241 62.1392 36.7994 64.8824 36.1026 67.886L34.3714 75.3428C34.2267 75.9708 34.2351 76.6284 34.396 77.2518C34.5569 77.8752 34.8647 78.4432 35.2895 78.9008C35.7144 79.3583 36.2419 79.6898 36.8208 79.863C37.3997 80.0362 38.0104 80.0453 38.5936 79.8894L45.5124 78.0253C48.3016 77.2746 50.849 75.7222 52.8826 73.534L77.3871 47.1462C78.2155 46.2548 78.8726 45.1964 79.3209 44.0315C79.7692 42.8666 80 41.6179 80 40.3569C80 39.0959 79.7692 37.8473 79.3209 36.6824C78.8726 35.5174 78.2155 34.459 77.3871 33.5677Z"
    fill="#F8F8F8"
  />
</svg>
